<svg width="24" height="24" viewBox="0 0 24 24" fill="none" xmlns="http://www.w3.org/2000/svg">
<g opacity="0.8">
<path fill-rule="evenodd" clip-rule="evenodd" d="M11.9999 20.5714C14.2732 20.5714 16.4534 19.6684 18.0608 18.0609C19.6683 16.4535 20.5713 14.2733 20.5713 12C20.5713 9.72673 19.6683 7.54656 18.0608 5.9391C16.4534 4.33165 14.2732 3.42859 11.9999 3.42859C9.72661 3.42859 7.54643 4.33165 5.93898 5.9391C4.33153 7.54656 3.42847 9.72673 3.42847 12C3.42847 14.2733 4.33153 16.4535 5.93898 18.0609C7.54643 19.6684 9.72661 20.5714 11.9999 20.5714ZM13.0713 7.7143C13.0713 7.43014 12.9584 7.15762 12.7575 6.95669C12.5566 6.75576 12.2841 6.64287 11.9999 6.64287C11.7157 6.64287 11.4432 6.75576 11.2423 6.95669C11.0413 7.15762 10.9285 7.43014 10.9285 7.7143V12C10.9285 12.2842 11.0414 12.5566 11.2424 12.7575L14.2724 15.7886C14.3719 15.8881 14.4901 15.9671 14.6202 16.021C14.7502 16.0748 14.8897 16.1026 15.0304 16.1026C15.1712 16.1026 15.3106 16.0748 15.4407 16.021C15.5707 15.9671 15.6889 15.8881 15.7885 15.7886C15.888 15.689 15.967 15.5709 16.0209 15.4408C16.0747 15.3107 16.1025 15.1713 16.1025 15.0306C16.1025 14.8898 16.0747 14.7504 16.0209 14.6203C15.967 14.4902 15.888 14.3721 15.7885 14.2725L13.0713 11.5564V7.7143Z" fill="#121212"/>
</g>
</svg>
