<svg width="24" height="24" viewBox="0 0 24 24" fill="none" xmlns="http://www.w3.org/2000/svg">
<g opacity="0.6">
<path d="M20.95 15.3024L12.5859 10.7403V10.4008C12.5859 10.0137 12.8206 9.65367 13.1984 9.46115C14.0496 9.02747 14.5556 8.19215 14.5189 7.28119C14.4692 6.0498 13.4056 5.04854 12.0977 5.00181C11.4055 4.9768 10.7501 5.21197 10.2521 5.66322C9.75371 6.1148 9.47926 6.72206 9.47926 7.37307C9.47926 7.67766 9.7416 7.92459 10.0652 7.92459C10.3888 7.92459 10.6511 7.67766 10.6511 7.37307C10.6511 7.02459 10.798 6.6996 11.0648 6.45785C11.3313 6.21643 11.6818 6.09043 12.0532 6.10403C12.7526 6.12903 13.3212 6.66448 13.3479 7.32303C13.3675 7.8112 13.0965 8.25877 12.6406 8.49111C11.8841 8.87658 11.4141 9.60833 11.4141 10.4008V10.7403L3.05004 15.3024C2.40234 15.6558 2 16.313 2 17.0177C2 18.1108 2.94461 19 4.1057 19H19.8943C21.0554 19 22 18.1107 22 17.0177C22 16.313 21.5977 15.6558 20.95 15.3024ZM19.8943 17.897H4.1057C3.59078 17.897 3.17188 17.5025 3.17188 17.0177C3.17188 16.7051 3.35031 16.4135 3.63762 16.2569L12 11.6956L20.3624 16.2569C20.6496 16.4136 20.8281 16.7051 20.8281 17.0177C20.8281 17.5025 20.4092 17.897 19.8943 17.897Z" fill="#121212"/>
</g>
</svg>
