<svg width="24" height="24" viewBox="0 0 24 24" fill="none" xmlns="http://www.w3.org/2000/svg">
<path d="M12.0001 8.87567C10.2798 8.87567 8.87589 10.2796 8.87589 11.9999C8.87589 13.7202 10.2798 15.1241 12.0001 15.1241C13.7204 15.1241 15.1243 13.7202 15.1243 11.9999C15.1243 10.2796 13.7204 8.87567 12.0001 8.87567ZM21.3704 11.9999C21.3704 10.7061 21.3821 9.42411 21.3095 8.1327C21.2368 6.6327 20.8946 5.30145 19.7978 4.20458C18.6986 3.10536 17.3696 2.76552 15.8696 2.69286C14.5759 2.6202 13.2939 2.63192 12.0025 2.63192C10.7087 2.63192 9.42667 2.6202 8.13527 2.69286C6.63527 2.76552 5.30402 3.1077 4.20714 4.20458C3.10792 5.3038 2.76808 6.6327 2.69542 8.1327C2.62277 9.42645 2.63449 10.7085 2.63449 11.9999C2.63449 13.2913 2.62277 14.5757 2.69542 15.8671C2.76808 17.3671 3.11027 18.6983 4.20714 19.7952C5.30636 20.8944 6.63527 21.2343 8.13527 21.3069C9.42902 21.3796 10.711 21.3679 12.0025 21.3679C13.2962 21.3679 14.5782 21.3796 15.8696 21.3069C17.3696 21.2343 18.7009 20.8921 19.7978 19.7952C20.897 18.696 21.2368 17.3671 21.3095 15.8671C21.3845 14.5757 21.3704 13.2936 21.3704 11.9999ZM12.0001 16.8069C9.33996 16.8069 7.19308 14.66 7.19308 11.9999C7.19308 9.33973 9.33996 7.19286 12.0001 7.19286C14.6603 7.19286 16.8071 9.33973 16.8071 11.9999C16.8071 14.66 14.6603 16.8069 12.0001 16.8069ZM17.004 8.11864C16.3829 8.11864 15.8814 7.61708 15.8814 6.99598C15.8814 6.37489 16.3829 5.87333 17.004 5.87333C17.6251 5.87333 18.1267 6.37489 18.1267 6.99598C18.1269 7.14347 18.0979 7.28953 18.0416 7.42582C17.9852 7.56212 17.9026 7.68595 17.7983 7.79023C17.694 7.89452 17.5702 7.97721 17.4339 8.03356C17.2976 8.08991 17.1515 8.11882 17.004 8.11864Z" fill="black"/>
</svg>
