<svg width="24" height="24" viewBox="0 0 24 24" fill="none" xmlns="http://www.w3.org/2000/svg">
<g opacity="0.8">
<path d="M17.657 16.6571L13.414 20.9001C13.2284 21.0858 13.0081 21.2332 12.7656 21.3337C12.523 21.4342 12.2631 21.486 12.0005 21.486C11.738 21.486 11.478 21.4342 11.2354 21.3337C10.9929 21.2332 10.7726 21.0858 10.587 20.9001L6.343 16.6571C5.22422 15.5382 4.46234 14.1128 4.15369 12.5609C3.84504 11.0091 4.00349 9.40059 4.60901 7.9388C5.21452 6.47702 6.2399 5.22761 7.55548 4.34858C8.87107 3.46955 10.4178 3.00037 12 3.00037C13.5822 3.00037 15.1289 3.46955 16.4445 4.34858C17.7601 5.22761 18.7855 6.47702 19.391 7.9388C19.9965 9.40059 20.155 11.0091 19.8463 12.5609C19.5377 14.1128 18.7758 15.5382 17.657 16.6571V16.6571Z" stroke="#121212" stroke-linecap="round" stroke-linejoin="round"/>
<path d="M15 11C15 11.7956 14.6839 12.5587 14.1213 13.1213C13.5587 13.6839 12.7956 14 12 14C11.2044 14 10.4413 13.6839 9.87868 13.1213C9.31607 12.5587 9 11.7956 9 11C9 10.2044 9.31607 9.44129 9.87868 8.87868C10.4413 8.31607 11.2044 8 12 8C12.7956 8 13.5587 8.31607 14.1213 8.87868C14.6839 9.44129 15 10.2044 15 11V11Z" stroke="#121212" stroke-linecap="round" stroke-linejoin="round"/>
</g>
</svg>
