<svg width="24" height="24" viewBox="0 0 24 24" fill="none" xmlns="http://www.w3.org/2000/svg">
<g opacity="0.8">
<path fill-rule="evenodd" clip-rule="evenodd" d="M6.05997 4.85997C7.63536 3.28458 9.77204 2.39954 12 2.39954C14.2279 2.39954 16.3646 3.28458 17.94 4.85997C19.5154 6.43535 20.4004 8.57203 20.4004 10.8C20.4004 13.0279 19.5154 15.1646 17.94 16.74L12 22.68L6.05997 16.74C5.27987 15.9599 4.66105 15.0339 4.23886 14.0147C3.81667 12.9955 3.59937 11.9031 3.59937 10.8C3.59937 9.69679 3.81667 8.60442 4.23886 7.58523C4.66105 6.56604 5.27987 5.63999 6.05997 4.85997ZM12 13.2C12.6365 13.2 13.2469 12.9471 13.697 12.497C14.1471 12.0469 14.4 11.4365 14.4 10.8C14.4 10.1634 14.1471 9.553 13.697 9.10291C13.2469 8.65282 12.6365 8.39996 12 8.39996C11.3635 8.39996 10.753 8.65282 10.3029 9.10291C9.85283 9.553 9.59997 10.1634 9.59997 10.8C9.59997 11.4365 9.85283 12.0469 10.3029 12.497C10.753 12.9471 11.3635 13.2 12 13.2Z" fill="#121212"/>
</g>
</svg>
