<svg width="24" height="24" viewBox="0 0 24 24" fill="none" xmlns="http://www.w3.org/2000/svg">
<path d="M12 1.5C6.20156 1.5 1.5 6.20156 1.5 12C1.5 16.2984 4.0875 19.9922 7.78594 21.6187C7.75781 20.8875 7.78125 20.0062 7.96875 19.2094C8.17031 18.3562 9.31875 13.4859 9.31875 13.4859C9.31875 13.4859 8.98125 12.8156 8.98125 11.8266C8.98125 10.2703 9.88125 9.10781 11.0063 9.10781C11.9625 9.10781 12.4219 9.825 12.4219 10.6828C12.4219 11.6437 11.8078 13.0781 11.4937 14.4094C11.2312 15.525 12.0516 16.4297 13.1531 16.4297C15.1406 16.4297 16.4813 13.875 16.4813 10.8469C16.4813 8.54531 14.9297 6.825 12.1125 6.825C8.92969 6.825 6.94219 9.20156 6.94219 11.8547C6.94219 12.7687 7.21406 13.4156 7.63594 13.9125C7.82812 14.1422 7.85625 14.2359 7.78594 14.4984C7.73438 14.6906 7.62187 15.1547 7.57031 15.3422C7.5 15.6094 7.28438 15.7031 7.04531 15.6047C5.57812 15.0047 4.89375 13.4016 4.89375 11.5922C4.89375 8.61094 7.41094 5.03437 12.3984 5.03437C16.4062 5.03437 19.0453 7.93594 19.0453 11.0484C19.0453 15.1687 16.7531 18.2437 13.3781 18.2437C12.2437 18.2437 11.1797 17.6297 10.8141 16.9359C10.8141 16.9359 10.2047 19.3547 10.0734 19.8234C9.85312 20.6344 9.41719 21.4406 9.01875 22.0734C9.96094 22.35 10.9594 22.5047 11.9953 22.5047C17.7937 22.5047 22.4953 17.8031 22.4953 12.0047C22.5 6.20156 17.7984 1.5 12 1.5Z" fill="white"/>
</svg>
