<svg width="24" height="24" viewBox="0 0 24 24" fill="none" xmlns="http://www.w3.org/2000/svg">
<path d="M23.0627 5.13281C22.2471 5.49375 21.3752 5.7375 20.4564 5.85C21.3939 5.2875 22.1158 4.39687 22.4533 3.3375C21.5768 3.85781 20.6064 4.2375 19.5705 4.43906C18.7408 3.55312 17.5596 3 16.2564 3C13.7486 3 11.7189 5.03437 11.7189 7.54219C11.7189 7.89844 11.7564 8.24531 11.8361 8.57812C8.0627 8.39062 4.71582 6.58125 2.47988 3.82969C2.09082 4.5 1.86582 5.28281 1.86582 6.1125C1.86582 7.6875 2.67207 9.07969 3.89082 9.89531C3.14082 9.87656 2.4377 9.67031 1.82832 9.32812V9.38437C1.82832 11.5875 3.39395 13.4203 5.47051 13.8375C5.09082 13.9406 4.6877 13.9969 4.2752 13.9969C3.98457 13.9969 3.69863 13.9687 3.42207 13.9125C3.99863 15.7172 5.67676 17.0297 7.66426 17.0672C6.1127 18.2859 4.15332 19.0125 2.0252 19.0125C1.65957 19.0125 1.29863 18.9891 0.942383 18.9469C2.94395 20.25 5.32988 21 7.88926 21C16.2471 21 20.8127 14.0766 20.8127 8.07187C20.8127 7.875 20.808 7.67812 20.7986 7.48594C21.6846 6.84375 22.4533 6.04688 23.0627 5.13281Z" fill="#121212"/>
</svg>
