<svg width="98" height="30" viewBox="0 0 98 30" fill="none" xmlns="http://www.w3.org/2000/svg">
<path d="M31.94 3.512V4.232C31.22 4.256 30.668 4.352 30.284 4.52C29.9 4.664 29.636 4.952 29.492 5.384C29.372 5.792 29.312 6.44 29.312 7.328V25.184C29.312 26.048 29.384 26.696 29.528 27.128C29.672 27.56 29.924 27.848 30.284 27.992C30.668 28.136 31.22 28.232 31.94 28.28V29C31.244 28.952 30.344 28.928 29.24 28.928C28.16 28.904 27.056 28.892 25.928 28.892C24.704 28.892 23.552 28.904 22.472 28.928C21.416 28.928 20.552 28.952 19.88 29V28.28C20.696 28.232 21.308 28.136 21.716 27.992C22.148 27.848 22.436 27.56 22.58 27.128C22.724 26.696 22.796 26.048 22.796 25.184V5.816L23.12 5.78L14.12 29H13.544L3.608 5.852V22.52C3.608 23.984 3.68 25.112 3.824 25.904C3.968 26.672 4.292 27.224 4.796 27.56C5.3 27.896 6.092 28.136 7.172 28.28V29C6.716 28.952 6.104 28.928 5.336 28.928C4.592 28.904 3.884 28.892 3.212 28.892C2.684 28.892 2.132 28.904 1.556 28.928C1.004 28.928 0.536 28.952 0.152 29V28.28C0.92 28.136 1.484 27.908 1.844 27.596C2.228 27.26 2.48 26.744 2.6 26.048C2.72 25.328 2.78 24.344 2.78 23.096V7.328C2.78 6.44 2.72 5.792 2.6 5.384C2.48 4.952 2.228 4.664 1.844 4.52C1.46 4.352 0.896 4.256 0.152 4.232V3.512C0.536 3.536 1.004 3.56 1.556 3.584C2.132 3.608 2.684 3.62 3.212 3.62C4.436 3.62 5.612 3.608 6.74 3.584C7.868 3.56 8.888 3.536 9.8 3.512L17.144 20.648L16.136 21.656L23.084 3.62C23.54 3.62 24.008 3.62 24.488 3.62C24.992 3.62 25.472 3.62 25.928 3.62C27.056 3.62 28.16 3.608 29.24 3.584C30.344 3.56 31.244 3.536 31.94 3.512ZM38.7184 0.955998C39.8464 0.955998 40.7224 1.208 41.3464 1.712C41.9944 2.216 42.3184 2.948 42.3184 3.908C42.3184 4.868 41.9944 5.6 41.3464 6.104C40.7224 6.608 39.8464 6.86 38.7184 6.86C37.5904 6.86 36.7024 6.608 36.0544 6.104C35.4304 5.6 35.1184 4.868 35.1184 3.908C35.1184 2.948 35.4304 2.216 36.0544 1.712C36.7024 1.208 37.5904 0.955998 38.7184 0.955998ZM41.8864 9.956V25.652C41.8864 26.66 42.0424 27.344 42.3544 27.704C42.6904 28.064 43.2544 28.244 44.0464 28.244V29C43.5664 28.976 42.8584 28.952 41.9224 28.928C40.9864 28.88 40.0384 28.856 39.0784 28.856C38.1184 28.856 37.1344 28.88 36.1264 28.928C35.1424 28.952 34.3984 28.976 33.8944 29V28.244C34.6864 28.244 35.2384 28.064 35.5504 27.704C35.8864 27.344 36.0544 26.66 36.0544 25.652V14.276C36.0544 13.196 35.8984 12.404 35.5864 11.9C35.2744 11.372 34.7104 11.108 33.8944 11.108V10.352C34.6624 10.424 35.4064 10.46 36.1264 10.46C37.2064 10.46 38.2264 10.424 39.1864 10.352C40.1704 10.256 41.0704 10.124 41.8864 9.956ZM55.2511 3.044C56.7391 3.044 57.8911 3.2 58.7071 3.512C59.5231 3.8 60.2191 4.112 60.7951 4.448C61.0831 4.616 61.3111 4.748 61.4791 4.844C61.6711 4.916 61.8511 4.952 62.0191 4.952C62.4031 4.952 62.6671 4.424 62.8111 3.368H63.6391C63.6151 3.848 63.5791 4.412 63.5311 5.06C63.5071 5.708 63.4831 6.572 63.4591 7.652C63.4591 8.708 63.4591 10.112 63.4591 11.864H62.6311C62.5351 10.568 62.2351 9.32 61.7311 8.12C61.2271 6.92 60.5311 5.924 59.6431 5.132C58.7791 4.34 57.7111 3.944 56.4391 3.944C55.3351 3.944 54.4231 4.256 53.7031 4.88C52.9831 5.48 52.6231 6.344 52.6231 7.472C52.6231 8.384 52.8511 9.176 53.3071 9.848C53.7631 10.496 54.4471 11.156 55.3591 11.828C56.2951 12.5 57.4711 13.328 58.8871 14.312C60.0151 15.056 61.0231 15.8 61.9111 16.544C62.7991 17.288 63.5071 18.128 64.0351 19.064C64.5871 20 64.8631 21.128 64.8631 22.448C64.8631 24.032 64.4311 25.352 63.5671 26.408C62.7031 27.44 61.5631 28.22 60.1471 28.748C58.7311 29.252 57.1831 29.504 55.5031 29.504C53.9431 29.504 52.6951 29.36 51.7591 29.072C50.8471 28.784 50.0671 28.484 49.4191 28.172C48.8911 27.836 48.4831 27.668 48.1951 27.668C47.8111 27.668 47.5471 28.196 47.4031 29.252H46.5751C46.6231 28.652 46.6471 27.956 46.6471 27.164C46.6711 26.348 46.6831 25.304 46.6831 24.032C46.7071 22.76 46.7191 21.14 46.7191 19.172H47.5471C47.6431 20.804 47.9071 22.328 48.3391 23.744C48.7951 25.16 49.4791 26.312 50.3911 27.2C51.3271 28.064 52.5631 28.496 54.0991 28.496C55.3951 28.496 56.4511 28.172 57.2671 27.524C58.0831 26.876 58.4911 25.94 58.4911 24.716C58.4911 23.228 57.9871 21.992 56.9791 21.008C55.9951 20.024 54.7231 19.016 53.1631 17.984C52.0351 17.24 50.9791 16.484 49.9951 15.716C49.0111 14.948 48.2191 14.096 47.6191 13.16C47.0431 12.2 46.7551 11.048 46.7551 9.704C46.7551 8.168 47.1511 6.908 47.9431 5.924C48.7351 4.94 49.7791 4.22 51.0751 3.764C52.3951 3.284 53.7871 3.044 55.2511 3.044ZM74.8588 4.484V10.352H78.7468V11.072H74.8588V25.796C74.8588 26.396 74.9668 26.828 75.1828 27.092C75.3988 27.332 75.7228 27.452 76.1548 27.452C76.5148 27.452 76.8868 27.332 77.2708 27.092C77.6788 26.852 78.0508 26.444 78.3868 25.868L78.9628 26.228C78.5068 27.212 77.8708 28.004 77.0548 28.604C76.2628 29.204 75.2188 29.504 73.9228 29.504C73.1308 29.504 72.4228 29.396 71.7988 29.18C71.1988 28.988 70.6948 28.688 70.2868 28.28C69.7588 27.752 69.4108 27.104 69.2428 26.336C69.0988 25.544 69.0268 24.524 69.0268 23.276V11.072H66.1467V10.352H69.0268V5.852C70.1548 5.852 71.1868 5.744 72.1228 5.528C73.0828 5.312 73.9948 4.964 74.8588 4.484ZM88.9241 9.848C90.7241 9.848 92.2961 10.172 93.6401 10.82C95.0081 11.444 96.0641 12.476 96.8081 13.916C97.5761 15.356 97.9601 17.276 97.9601 19.676C97.9601 22.076 97.5761 23.996 96.8081 25.436C96.0641 26.876 95.0081 27.92 93.6401 28.568C92.2961 29.192 90.7241 29.504 88.9241 29.504C87.1481 29.504 85.5761 29.192 84.2081 28.568C82.8641 27.92 81.8081 26.876 81.0401 25.436C80.2721 23.996 79.8881 22.076 79.8881 19.676C79.8881 17.276 80.2721 15.356 81.0401 13.916C81.8081 12.476 82.8641 11.444 84.2081 10.82C85.5761 10.172 87.1481 9.848 88.9241 9.848ZM88.9241 10.568C88.0841 10.568 87.3761 11.288 86.8001 12.728C86.2481 14.144 85.9721 16.46 85.9721 19.676C85.9721 22.892 86.2481 25.22 86.8001 26.66C87.3761 28.076 88.0841 28.784 88.9241 28.784C89.7881 28.784 90.4961 28.076 91.0481 26.66C91.6001 25.22 91.8761 22.892 91.8761 19.676C91.8761 16.46 91.6001 14.144 91.0481 12.728C90.4961 11.288 89.7881 10.568 88.9241 10.568Z" fill="#121212"/>
</svg>
