<svg width="24" height="24" viewBox="0 0 24 24" fill="none" xmlns="http://www.w3.org/2000/svg">
<path d="M21.45 10.5L21.3516 10.0828H12.2812V13.9218H17.7C17.1375 16.5937 14.5266 18 12.3937 18C10.8422 18 9.20625 17.3484 8.12344 16.2984C7.0125 15.2203 6.30469 13.6312 6.30469 11.9953C6.30469 10.3781 7.03125 8.76089 8.09063 7.69683C9.14531 6.63745 10.7438 6.03745 12.3328 6.03745C14.1516 6.03745 15.4547 7.00308 15.9422 7.4437L18.6703 4.72964C17.8687 4.02651 15.6703 2.25464 12.2438 2.25464C9.6 2.25464 7.06406 3.26714 5.2125 5.11401C3.38437 6.93276 2.4375 9.56245 2.4375 12C2.4375 14.4375 3.33281 16.9406 5.10469 18.7734C6.99844 20.7281 9.67969 21.75 12.4406 21.75C14.9531 21.75 17.3344 20.7656 19.0312 18.9796C20.7 17.2218 21.5625 14.789 21.5625 12.239C21.5625 11.1656 21.4547 10.5281 21.45 10.5Z" fill="#121212"/>
</svg>
