<svg width="24" height="24" viewBox="0 0 24 24" fill="none" xmlns="http://www.w3.org/2000/svg">
<path fill-rule="evenodd" clip-rule="evenodd" d="M12 2.40002C12.3183 2.40002 12.6235 2.52645 12.8486 2.7515C13.0736 2.97654 13.2 3.28176 13.2 3.60002V5.18762L17.9448 7.08602L19.8636 6.12602C20.1485 5.98376 20.4782 5.96048 20.7802 6.0613C21.0822 6.16212 21.3318 6.37878 21.474 6.66362C21.6163 6.94847 21.6396 7.27816 21.5388 7.58016C21.4379 7.88217 21.2213 8.13176 20.9364 8.27402L19.4568 9.01322L21.5424 15.5172C21.6132 15.7378 21.6185 15.9742 21.5578 16.1978C21.4971 16.4214 21.373 16.6226 21.2004 16.7772C20.321 17.5657 19.1812 18.0012 18 18C16.8189 18.0012 15.679 17.5657 14.7996 16.7772C14.6271 16.6226 14.503 16.4214 14.4423 16.1978C14.3816 15.9742 14.3869 15.7378 14.4576 15.5172L16.5156 9.09842L13.2 7.77242V19.2H15.6C15.9183 19.2 16.2235 19.3265 16.4486 19.5515C16.6736 19.7765 16.8 20.0818 16.8 20.4C16.8 20.7183 16.6736 21.0235 16.4486 21.2486C16.2235 21.4736 15.9183 21.6 15.6 21.6H8.40004C8.08178 21.6 7.77656 21.4736 7.55152 21.2486C7.32647 21.0235 7.20004 20.7183 7.20004 20.4C7.20004 20.0818 7.32647 19.7765 7.55152 19.5515C7.77656 19.3265 8.08178 19.2 8.40004 19.2H10.8V7.77242L7.48444 9.09842L9.54244 15.5172C9.61315 15.7378 9.61848 15.9742 9.5578 16.1978C9.49711 16.4214 9.373 16.6226 9.20044 16.7772C8.32104 17.5657 7.18117 18.0012 6.00004 18C4.81892 18.0012 3.67905 17.5657 2.79964 16.7772C2.62709 16.6226 2.50298 16.4214 2.44229 16.1978C2.38161 15.9742 2.38694 15.7378 2.45764 15.5172L4.54324 9.01322L3.06364 8.27282C2.78917 8.12481 2.58309 7.87577 2.48907 7.57844C2.39504 7.28112 2.42044 6.95887 2.5599 6.67995C2.69936 6.40104 2.94192 6.18736 3.23619 6.08419C3.53047 5.98102 3.85335 5.99645 4.13644 6.12722L6.05524 7.08602L10.8 5.18762V3.60002C10.8 3.28176 10.9265 2.97654 11.1515 2.7515C11.3766 2.52645 11.6818 2.40002 12 2.40002ZM6.00004 12.3288L5.01845 15.3912C5.31844 15.5256 5.64964 15.6 6.00004 15.6C6.35044 15.6 6.68284 15.5256 6.98164 15.3912L6.00004 12.3288ZM18 12.3288L17.0184 15.3912C17.3184 15.5256 17.6496 15.6 18 15.6C18.3504 15.6 18.6828 15.5256 18.9816 15.3912L18 12.3288Z" fill="#111111"/>
</svg>
