<svg width="24" height="24" viewBox="0 0 24 24" fill="none" xmlns="http://www.w3.org/2000/svg">
<g opacity="0.6">
<path d="M18.0002 9.60003C18.7312 9.60005 19.4449 9.37755 20.0463 8.96211C20.6478 8.54667 21.1085 7.95797 21.3672 7.27431C21.626 6.59066 21.6705 5.84443 21.4948 5.13487C21.3191 4.42531 20.9316 3.78604 20.3838 3.30207C19.836 2.8181 19.1538 2.51236 18.428 2.42552C17.7022 2.33868 16.9671 2.47485 16.3206 2.81591C15.6741 3.15698 15.1467 3.68679 14.8086 4.33488C14.4705 4.98296 14.3377 5.71862 14.4278 6.44403L8.49981 9.40803C7.99129 8.91765 7.34972 8.58773 6.65504 8.45936C5.96036 8.33099 5.24326 8.40985 4.59307 8.68611C3.94288 8.96237 3.38835 9.42382 2.99854 10.013C2.60873 10.6022 2.40088 11.293 2.40088 11.9994C2.40088 12.7059 2.60873 13.3967 2.99854 13.9859C3.38835 14.575 3.94288 15.0365 4.59307 15.3127C5.24326 15.589 5.96036 15.6679 6.65504 15.5395C7.34972 15.4111 7.99129 15.0812 8.49981 14.5908L14.4278 17.5548C14.3228 18.3975 14.5191 19.2502 14.9819 19.9622C15.4448 20.6741 16.1445 21.1996 16.9572 21.4456C17.77 21.6916 18.6436 21.6424 19.4236 21.3066C20.2036 20.9708 20.8398 20.3701 21.2198 19.6107C21.5997 18.8512 21.6989 17.9819 21.4999 17.1563C21.3009 16.3307 20.8165 15.6021 20.1322 15.0992C19.4479 14.5963 18.6079 14.3514 17.7606 14.4079C16.9133 14.4645 16.1132 14.8187 15.5018 15.408L9.57381 12.444C9.61012 12.1491 9.61012 11.8509 9.57381 11.556L15.5018 8.59203C16.1474 9.21603 17.0282 9.60003 18.0002 9.60003Z" fill="#121212"/>
</g>
</svg>
